<svg width="64" height="64" viewBox="0 0 64 64" fill="none" xmlns="http://www.w3.org/2000/svg">
  <rect width="64" height="64" rx="12" fill="#0A0A0A"/>
  <!-- L -->
  <rect x="13" y="14" width="5" height="28" rx="1" fill="white"/>
  <rect x="13" y="37" width="16" height="5" rx="1" fill="white"/>
  <!-- S -->
  <path d="M36 14h13a1 1 0 0 1 1 1v5a1 1 0 0 1-1 1H38a1 1 0 0 0-1 1v3a1 1 0 0 0 1 1h11a1 1 0 0 1 1 1v8a1 1 0 0 1-1 1H36a1 1 0 0 1-1-1v-5a1 1 0 0 1 1-1h11a1 1 0 0 0 1-1v-3a1 1 0 0 0-1-1H36a1 1 0 0 1-1-1v-8a1 1 0 0 1 1-1z" fill="white"/>
</svg>
