<svg width="180" height="180" viewBox="0 0 180 180" fill="none" xmlns="http://www.w3.org/2000/svg">
  <style>
    @media (prefers-color-scheme: light) {
      .bg { fill: #0A0A0A; }
      .fg { fill: #FFFFFF; }
    }
    @media (prefers-color-scheme: dark) {
      .bg { fill: #FFFFFF; }
      .fg { fill: #0A0A0A; }
    }
  </style>
  <rect class="bg" width="180" height="180" rx="36"/>
  <!-- L -->
  <rect class="fg" x="30" y="38" width="18" height="86" rx="4"/>
  <rect class="fg" x="30" y="106" width="50" height="18" rx="4"/>
  <!-- S -->
  <path class="fg" d="M100 38h46a4 4 0 0 1 4 4v18a4 4 0 0 1-4 4h-36a4 4 0 0 0-4 4v10a4 4 0 0 0 4 4h36a4 4 0 0 1 4 4v18a4 4 0 0 1-4 4h-46a4 4 0 0 1-4-4v-18a4 4 0 0 1 4-4h36a4 4 0 0 0 4-4v-10a4 4 0 0 0-4-4h-36a4 4 0 0 1-4-4V42a4 4 0 0 1 4-4z"/>
</svg>
