<svg xmlns="http://www.w3.org/2000/svg" viewBox="0 0 287.5 191" role="img" aria-label="Meta">
  <defs>
    <linearGradient id="meta-a" x1="62.5" x2="225" y1="95.5" y2="95.5" gradientUnits="userSpaceOnUse">
      <stop offset="0" stop-color="#0064E1"/>
      <stop offset=".4" stop-color="#0064E1"/>
      <stop offset=".83" stop-color="#0073EE"/>
      <stop offset="1" stop-color="#0082FB"/>
    </linearGradient>
    <linearGradient id="meta-b" x1="41.5" x2="41.5" y1="115" y2="65" gradientUnits="userSpaceOnUse">
      <stop offset="0" stop-color="#0082FB"/>
      <stop offset="1" stop-color="#0064E0"/>
    </linearGradient>
  </defs>
  <path fill="#0081FB" d="M31.06 126c0 11.17 2.45 19.71 5.66 24.89 4.2 6.78 10.47 9.66 16.85 9.66 8.23 0 15.75-2.04 30.25-22.06 11.62-16.05 25.31-38.59 34.52-52.73l15.61-23.99c10.83-16.64 23.37-35.13 37.74-47.66 11.73-10.22 24.39-15.9 37.13-15.9 21.39 0 41.76 12.4 57.34 35.65 17.06 25.45 25.34 57.5 25.34 90.58 0 19.66-3.88 34.1-10.48 45.51-6.38 11.03-18.81 22.05-39.7 22.05v-31.45c17.88 0 22.34-16.43 22.34-35.23 0-26.79-6.25-56.51-20.02-77.74-9.77-15.06-22.42-24.26-36.34-24.26-15.06 0-27.18 11.36-40.81 31.62-7.24 10.77-14.68 23.9-23.03 38.71l-9.21 16.34c-18.5 32.81-23.18 40.27-32.42 52.61-16.18 21.63-30 29.71-48.18 29.71-21.59 0-35.24-9.35-43.69-23.44C2.84 157.34 0 142.79 0 126.18l31.06-.18Z"/>
  <path fill="url(#meta-a)" d="M24.49 37.78C38.94 15.5 59.79 0 83.7 0c13.84 0 27.6 4.1 41.97 15.84 15.71 12.84 32.46 33.98 53.38 68.83l7.5 12.5c18.11 30.16 28.41 45.67 34.43 52.99 7.75 9.4 13.18 12.21 20.24 12.21 17.88 0 22.34-16.43 22.34-35.23l27.4-.86c0 19.66-3.88 34.1-10.48 45.51-6.38 11.03-18.81 22.05-39.7 22.05-12.99 0-24.5-2.82-37.23-14.83-9.78-9.22-21.21-25.6-30-40.34l-26.14-43.7C84.31 73.49 72.61 56.16 65.84 48.31c-7.27-8.45-16.62-18.65-31.55-18.65-12.09 0-22.36 8.48-30.95 21.46l-25.84-13.34Z"/>
  <path fill="url(#meta-b)" d="M83.19 29.66c-12.09 0-22.36 8.48-30.95 21.46-12.14 18.35-19.57 45.69-19.57 71.94 0 10.83 2.39 19.13 5.53 24.13L11.6 162.88C2.84 157.34 0 142.79 0 126.18 0 95.85 8.32 64.24 24.49 37.78 38.94 15.5 59.79 0 83.7 0l-.51 29.66Z"/>
</svg>
